{"asset":{"version":"2.0","generator":"babylon.js glTF exporter for 3dsmax 2018 v20200813.4"},"scene":0,"scenes":[{"nodes":[0,1]}],"nodes":[{"mesh":0,"translation":[0.09381457,-3.81469732E-07,0.029570533],"rotation":[0.7071068,0.0,0.0,0.7071067],"name":"变压器"},{"name":"Default light"}],"meshes":[{"primitives":[{"attributes":{"POSITION":1,"NORMAL":2,"TEXCOORD_0":3,"TEXCOORD_1":4},"indices":0,"material":0},{"attributes":{"POSITION":6,"NORMAL":7,"TEXCOORD_0":8,"TEXCOORD_1":9},"indices":5,"material":1}],"name":"变压器"}],"accessors":[{"bufferView":0,"componentType":5125,"count":159972,"type":"SCALAR","name":"accessorIndices"},{"bufferView":1,"componentType":5126,"count":159972,"max":[0.61861974,1.11185086,-0.0354041234],"min":[-0.9057221,-1.1526171,-2.52185082],"type":"VEC3","name":"accessorPositions"},{"bufferView":1,"byteOffset":1919664,"componentType":5126,"count":159972,"type":"VEC3","name":"accessorNormals"},{"bufferView":2,"componentType":5126,"count":159972,"type":"VEC2","name":"accessorUVs"},{"bufferView":2,"byteOffset":1279776,"componentType":5126,"count":159972,"type":"VEC2","name":"accessorUV2s"},{"bufferView":0,"byteOffset":639888,"componentType":5125,"count":88494,"type":"SCALAR","name":"accessorIndices"},{"bufferView":1,"byteOffset":3839328,"componentType":5126,"count":88494,"max":[0.6967274,1.22826707,1.78813934E-07],"min":[-0.569107533,-1.28740871,-2.46103477],"type":"VEC3","name":"accessorPositions"},{"bufferView":1,"byteOffset":4901256,"componentType":5126,"count":88494,"type":"VEC3","name":"accessorNormals"},{"bufferView":2,"byteOffset":2559552,"componentType":5126,"count":88494,"type":"VEC2","name":"accessorUVs"},{"bufferView":2,"byteOffset":3267504,"componentType":5126,"count":88494,"type":"VEC2","name":"accessorUV2s"}],"bufferViews":[{"buffer":0,"byteLength":993864,"name":"bufferViewScalar"},{"buffer":0,"byteOffset":993864,"byteLength":5963184,"byteStride":12,"name":"bufferViewFloatVec3"},{"buffer":0,"byteOffset":6957048,"byteLength":3975456,"byteStride":8,"name":"bufferViewFloatVec2"}],"buffers":[{"uri":"transformer.bin","byteLength":10932504}],"materials":[{"pbrMetallicRoughness":{"baseColorTexture":{"index":0},"metallicFactor":0.0,"roughnessFactor":0.450053632},"name":"20 - Default"},{"pbrMetallicRoughness":{"baseColorTexture":{"index":1},"metallicFactor":0.0,"roughnessFactor":0.450053632},"name":"19 - Default"}],"textures":[{"sampler":0,"source":0,"name":"变压器ao.png"},{"sampler":0,"source":1,"name":"变压器-架子DiffuseMap.png"}],"images":[{"uri":"变压器ao.png"},{"uri":"变压器-架子DiffuseMap.png"}],"samplers":[{"magFilter":9729,"minFilter":9987}]}