{"asset":{"version":"2.0","generator":"babylon.js glTF exporter for 3dsmax 2018 v20200813.4"},"scene":0,"scenes":[{"nodes":[0,1,2]}],"nodes":[{"mesh":0,"name":"Wind power-A017"},{"mesh":1,"translation":[0.0484848022,83.7337341,4.88769341],"rotation":[0.00149493909,-0.0005476094,-0.09396636,0.9955741],"scale":[0.99999994,1.0,0.99999994],"name":"Wind power-A018"},{"name":"Default light"}],"meshes":[{"primitives":[{"attributes":{"POSITION":1,"NORMAL":2,"TEXCOORD_0":3},"indices":0,"material":0}],"name":"Wind power-A017"},{"primitives":[{"attributes":{"POSITION":5,"NORMAL":6,"TEXCOORD_0":7},"indices":4,"material":1}],"name":"Wind power-A018"}],"accessors":[{"bufferView":0,"componentType":5125,"count":213762,"type":"SCALAR","name":"accessorIndices"},{"bufferView":1,"componentType":5126,"count":213762,"max":[11.4840031,88.92542,19.5706482],"min":[-11.3608074,-38.5402527,-12.1645918],"type":"VEC3","name":"accessorPositions"},{"bufferView":1,"byteOffset":2565144,"componentType":5126,"count":213762,"type":"VEC3","name":"accessorNormals"},{"bufferView":2,"componentType":5126,"count":213762,"type":"VEC2","name":"accessorUVs"},{"bufferView":0,"byteOffset":855048,"componentType":5123,"count":37416,"type":"SCALAR","name":"accessorIndices"},{"bufferView":1,"byteOffset":5130288,"componentType":5126,"count":37416,"max":[42.12189,24.5350723,5.18135834],"min":[-41.9008942,-48.4583626,0.000162124634],"type":"VEC3","name":"accessorPositions"},{"bufferView":1,"byteOffset":5579280,"componentType":5126,"count":37416,"type":"VEC3","name":"accessorNormals"},{"bufferView":2,"byteOffset":1710096,"componentType":5126,"count":37416,"type":"VEC2","name":"accessorUVs"},{"bufferView":3,"componentType":5126,"count":35,"max":[3.33333325],"min":[0.0],"type":"SCALAR","name":"accessorAnimationInput"},{"bufferView":4,"componentType":5126,"count":35,"type":"VEC4","name":"accessorAnimationRotations"}],"bufferViews":[{"buffer":0,"byteLength":929880,"name":"bufferViewScalar"},{"buffer":0,"byteOffset":929880,"byteLength":6028272,"byteStride":12,"name":"bufferViewFloatVec3"},{"buffer":0,"byteOffset":6958152,"byteLength":2009424,"byteStride":8,"name":"bufferViewFloatVec2"},{"buffer":0,"byteOffset":8967576,"byteLength":140,"name":"bufferViewAnimationFloatScalar"},{"buffer":0,"byteOffset":8967716,"byteLength":560,"name":"bufferViewAnimationFloatVec4"}],"buffers":[{"uri":"A.bin","byteLength":8968276}],"materials":[{"pbrMetallicRoughness":{"baseColorTexture":{"index":0},"metallicFactor":0.0,"roughnessFactor":0.450053632},"doubleSided":true,"name":"21 - Default"},{"pbrMetallicRoughness":{"baseColorTexture":{"index":1},"metallicFactor":0.0,"roughnessFactor":0.450053632},"name":"16 - Default"}],"textures":[{"sampler":0,"source":0,"name":"Wind power-A017CompleteMap.png"},{"sampler":0,"source":1,"name":"Wind power-A018CompleteMap.png"}],"images":[{"uri":"./Wind power-A017CompleteMap.png"},{"uri":"./Wind power-A018CompleteMap.png"}],"samplers":[{"magFilter":9729,"minFilter":9987}],"animations":[{"channels":[{"sampler":0,"target":{"node":1,"path":"rotation"}}],"samplers":[{"input":8,"output":9}],"name":"All Animations"}]}