{"asset":{"version":"2.0","generator":"babylon.js glTF exporter for 3dsmax 2018 v20200813.4"},"scene":0,"scenes":[{"nodes":[0,7]}],"nodes":[{"children":[1,2,3,4,5,6],"mesh":0,"name":"Wind power-A023"},{"mesh":1,"translation":[0.06201935,12.6439495,-3.81469727E-06],"name":"Wind power-A016"},{"mesh":2,"translation":[0.0503234863,13.0851574,0.0242118835],"name":"Wind power-A017"},{"mesh":3,"translation":[0.0484848022,83.7337341,4.88769341],"rotation":[0.00149493886,-0.00054760935,-0.09396636,0.9955741],"scale":[0.99999994,1.0,0.99999994],"name":"Wind power-A018"},{"mesh":4,"translation":[0.0667266846,13.7476368,11.3814774],"name":"Wind_power-A001"},{"mesh":5,"translation":[0.06201935,12.6439495,-3.81469727E-06],"name":"Wind power-A025"},{"mesh":6,"translation":[0.06201935,12.6439495,-3.81469727E-06],"name":"Wind power-A015"},{"name":"Default light"}],"meshes":[{"primitives":[{"attributes":{"POSITION":1,"NORMAL":2,"TEXCOORD_0":3},"indices":0}],"name":"Wind power-A023"},{"primitives":[{"attributes":{"POSITION":5,"NORMAL":6},"indices":4}],"name":"Wind power-A016"},{"primitives":[{"attributes":{"POSITION":8,"NORMAL":9,"TEXCOORD_0":10},"indices":7}],"name":"Wind power-A017"},{"primitives":[{"attributes":{"POSITION":12,"NORMAL":13,"TEXCOORD_0":14},"indices":11}],"name":"Wind power-A018"},{"primitives":[{"attributes":{"POSITION":16,"NORMAL":17,"TEXCOORD_0":18},"indices":15}],"name":"Wind_power-A001"},{"primitives":[{"attributes":{"POSITION":20,"NORMAL":21,"TEXCOORD_0":22},"indices":19}],"name":"Wind power-A025"},{"primitives":[{"attributes":{"POSITION":24,"NORMAL":25,"TEXCOORD_0":26},"indices":23}],"name":"Wind power-A015"}],"accessors":[{"bufferView":0,"componentType":5123,"count":17994,"type":"SCALAR","name":"accessorIndices"},{"bufferView":1,"componentType":5126,"count":17994,"max":[11.414814,22.929924,18.9054718],"min":[-11.1800385,-38.5402527,-11.429143],"type":"VEC3","name":"accessorPositions"},{"bufferView":1,"byteOffset":215928,"componentType":5126,"count":17994,"type":"VEC3","name":"accessorNormals"},{"bufferView":2,"componentType":5126,"count":17994,"type":"VEC2","name":"accessorUVs"},{"bufferView":0,"byteOffset":35988,"componentType":5123,"count":288,"type":"SCALAR","name":"accessorIndices"},{"bufferView":1,"byteOffset":431856,"componentType":5126,"count":288,"max":[7.598278,0.510000169,7.598278],"min":[-7.598278,0.0,-7.598278],"type":"VEC3","name":"accessorPositions"},{"bufferView":1,"byteOffset":435312,"componentType":5126,"count":288,"type":"VEC3","name":"accessorNormals"},{"bufferView":0,"byteOffset":36564,"componentType":5125,"count":167490,"type":"SCALAR","name":"accessorIndices"},{"bufferView":1,"byteOffset":438768,"componentType":5126,"count":167490,"max":[2.90938878,75.84027,4.867335],"min":[-2.90908647,0.0006971359,-7.022832],"type":"VEC3","name":"accessorPositions"},{"bufferView":1,"byteOffset":2448648,"componentType":5126,"count":167490,"type":"VEC3","name":"accessorNormals"},{"bufferView":2,"byteOffset":143952,"componentType":5126,"count":167490,"type":"VEC2","name":"accessorUVs"},{"bufferView":0,"byteOffset":706524,"componentType":5123,"count":37416,"type":"SCALAR","name":"accessorIndices"},{"bufferView":1,"byteOffset":4458528,"componentType":5126,"count":37416,"max":[42.12189,24.5350723,5.18135834],"min":[-41.9008942,-48.4583626,0.000162124634],"type":"VEC3","name":"accessorPositions"},{"bufferView":1,"byteOffset":4907520,"componentType":5126,"count":37416,"type":"VEC3","name":"accessorNormals"},{"bufferView":2,"byteOffset":1483872,"componentType":5126,"count":37416,"type":"VEC2","name":"accessorUVs"},{"bufferView":0,"byteOffset":781356,"componentType":5123,"count":5532,"type":"SCALAR","name":"accessorIndices"},{"bufferView":1,"byteOffset":5356512,"componentType":5126,"count":5532,"max":[3.576561,1.107029,1.7882812],"min":[-3.576561,-1.10702991,-1.78828144],"type":"VEC3","name":"accessorPositions"},{"bufferView":1,"byteOffset":5422896,"componentType":5126,"count":5532,"type":"VEC3","name":"accessorNormals"},{"bufferView":2,"byteOffset":1783200,"componentType":5126,"count":5532,"type":"VEC2","name":"accessorUVs"},{"bufferView":0,"byteOffset":792420,"componentType":5123,"count":342,"type":"SCALAR","name":"accessorIndices"},{"bufferView":1,"byteOffset":5489280,"componentType":5126,"count":342,"max":[11.2969475,5.59905052,18.9357529],"min":[-11.2977524,0.381250381,-11.3988457],"type":"VEC3","name":"accessorPositions"},{"bufferView":1,"byteOffset":5493384,"componentType":5126,"count":342,"type":"VEC3","name":"accessorNormals"},{"bufferView":2,"byteOffset":1827456,"componentType":5126,"count":342,"type":"VEC2","name":"accessorUVs"},{"bufferView":0,"byteOffset":793104,"componentType":5123,"count":22458,"type":"SCALAR","name":"accessorIndices"},{"bufferView":1,"byteOffset":5497488,"componentType":5126,"count":22458,"max":[11.4219837,5.724067,19.5706539],"min":[-11.4228268,-0.600577056,-12.164587],"type":"VEC3","name":"accessorPositions"},{"bufferView":1,"byteOffset":5766984,"componentType":5126,"count":22458,"type":"VEC3","name":"accessorNormals"},{"bufferView":2,"byteOffset":1830192,"componentType":5126,"count":22458,"type":"VEC2","name":"accessorUVs"},{"bufferView":3,"componentType":5126,"count":57,"max":[3.33333325],"min":[0.0],"type":"SCALAR","name":"accessorAnimationInput"},{"bufferView":4,"componentType":5126,"count":57,"type":"VEC4","name":"accessorAnimationRotations"}],"bufferViews":[{"buffer":0,"byteLength":838020,"name":"bufferViewScalar"},{"buffer":0,"byteOffset":838020,"byteLength":6036480,"byteStride":12,"name":"bufferViewFloatVec3"},{"buffer":0,"byteOffset":6874500,"byteLength":2009856,"byteStride":8,"name":"bufferViewFloatVec2"},{"buffer":0,"byteOffset":8884356,"byteLength":228,"name":"bufferViewAnimationFloatScalar"},{"buffer":0,"byteOffset":8884584,"byteLength":912,"name":"bufferViewAnimationFloatVec4"}],"buffers":[{"uri":"FD.bin","byteLength":8885496}],"animations":[{"channels":[{"sampler":0,"target":{"node":3,"path":"rotation"}}],"samplers":[{"input":27,"output":28}],"name":"All Animations"}]}