


mtllib windpowergenerator_flow_2001_02.mtl





v  -20453.7910 347.8456 -77.1727
v  -20386.3535 347.8456 -77.1727
v  -20386.3535 347.8456 176.4070
v  -20453.7910 347.8456 176.4070
v  -20420.0723 406.2471 -77.1727
v  -20420.0723 406.2470 176.4070


vn 0.0000 -1.0000 -0.0000
vn 0.8660 0.5000 0.0000
vn -0.8660 0.5000 0.0000


vt 0.0112 0.2228 0.0000
vt 0.0121 0.2228 0.0000
vt 0.0121 0.8187 0.0000
vt 0.0112 0.8187 0.0000
vt 0.0130 0.2228 0.0000
vt 0.0130 0.8187 0.0000
vt 0.0139 0.2228 0.0000
vt 0.0139 0.8187 0.0000


g pCylinder205
usemtl lambert38
s off
f 1/1/1 2/2/1 3/3/1 4/4/1 
f 2/2/2 5/5/2 6/6/2 3/3/2 
f 5/5/3 1/7/3 4/8/3 6/6/3 


