


mtllib windpowergenerator_inside_2001_10.mtl





v  -20413.4824 437.6543 -941.8552
v  -20413.4824 437.6543 -754.7255
v  -20360.5742 437.6543 -754.7255
v  -20360.5742 437.6543 -941.8552
v  -20418.3027 432.8350 -754.7255
v  -20418.3027 432.8350 -941.8552
v  -20354.6953 431.7744 -941.8552
v  -20354.6953 431.7744 -754.7255
v  -20358.7129 301.6836 -941.8552
v  -20355.7266 307.4590 -941.8552
v  -20355.7266 307.4590 -754.7255
v  -20358.7129 301.6836 -754.7255
v  -20354.6953 313.8770 -941.8552
v  -20354.6953 313.8770 -754.7255
v  -20418.3027 313.3750 -754.7255
v  -20418.3027 313.3750 -941.8552
v  -20367.2930 290.0742 -754.7255
v  -20370.1055 236.0029 -754.7255
v  -20370.1055 236.0030 -941.8552
v  -20370.1055 281.5371 -941.8552
v  -20370.1055 281.5371 -754.7255
v  -20418.3027 236.0030 -941.8552
v  -20367.2930 290.0742 -941.8552
v  -20369.3848 286.0293 -941.8552
v  -20369.3848 286.0293 -754.7255
v  -20418.3027 236.0029 -754.7255


vn 0.0000 1.0000 0.0000
vn -0.7071 0.7071 0.0000
vn 0.7072 0.7070 0.0000
vn 0.8325 -0.5540 -0.0000
vn 0.9498 -0.3129 0.0000
vn 1.0000 -0.0083 0.0000
vn 1.0000 -0.0000 0.0000
vn 0.0000 -0.0000 1.0000
vn -0.0000 -0.0000 1.0000
vn -1.0000 0.0000 -0.0000
vn -0.0000 0.0000 -1.0000
vn 0.0000 0.0000 -1.0000
vn 1.0000 0.0000 -0.0000
vn 0.9999 -0.0144 -0.0000
vn 0.8263 -0.5633 -0.0000
vn 0.9498 -0.3129 -0.0000


vt 0.7513 0.7466 0.0000
vt 0.6604 0.7466 0.0000
vt 0.6604 0.7209 0.0000
vt 0.7513 0.7209 0.0000
vt 0.6604 0.7529 0.0000
vt 0.6604 0.7496 0.0000
vt 0.7513 0.7496 0.0000
vt 0.7513 0.7529 0.0000
vt 0.7513 0.7130 0.0000
vt 0.7513 0.7170 0.0000
vt 0.6604 0.7170 0.0000
vt 0.6604 0.7130 0.0000
vt 0.7513 0.6465 0.0000
vt 0.7513 0.6497 0.0000
vt 0.6604 0.6497 0.0000
vt 0.6604 0.6465 0.0000
vt 0.7513 0.6528 0.0000
vt 0.6604 0.6528 0.0000
vt 0.7513 0.7101 0.0000
vt 0.6604 0.7101 0.0000
vt 0.6538 0.8873 0.0000
vt 0.7112 0.8564 0.0000
vt 0.7110 0.8873 0.0000
vt 0.7513 0.8142 0.0000
vt 0.6604 0.8142 0.0000
vt 0.6604 0.7561 0.0000
vt 0.7513 0.7561 0.0000
vt 0.6509 0.9204 0.0000
vt 0.7113 0.9228 0.0000
vt 0.6533 0.9228 0.0000
vt 0.7169 0.8853 0.0000
vt 0.7226 0.8811 0.0000
vt 0.7110 0.8919 0.0000
vt 0.7141 0.8924 0.0000
vt 0.6604 0.6130 0.0000
vt 0.7513 0.6130 0.0000
vt 0.7513 0.6351 0.0000
vt 0.6604 0.6351 0.0000
vt 0.7267 0.8993 0.0000
vt 0.7488 0.8993 0.0000
vt 0.7488 0.9228 0.0000
vt 0.6604 0.6395 0.0000
vt 0.7513 0.6395 0.0000
vt 0.7513 0.6373 0.0000
vt 0.6604 0.6373 0.0000
vt 0.7267 0.8798 0.0000
vt 0.7245 0.8801 0.0000
vt 0.7488 0.8564 0.0000
vt 0.6604 0.8517 0.0000
vt 0.7513 0.8517 0.0000
vt 0.7245 0.8990 0.0000
vt 0.6509 0.8587 0.0000
vt 0.6509 0.8844 0.0000
vt 0.6532 0.8564 0.0000
vt 0.6538 0.8919 0.0000
vt 0.6509 0.8947 0.0000
vt 0.7141 0.8868 0.0000
vt 0.7169 0.8938 0.0000
vt 0.7226 0.8980 0.0000
vt 0.7488 0.8798 0.0000


g pasted__pCube70
usemtl pasted__lambert20
s off
f 1/1/1 2/2/1 3/3/1 4/4/1 
f 5/5/2 2/6/2 1/7/2 6/8/2 
f 7/9/3 4/10/3 3/11/3 8/12/3 
f 9/13/4 10/14/5 11/15/5 12/16/4 
f 10/14/5 13/17/6 14/18/6 11/15/5 
f 14/18/6 13/17/6 7/19/7 8/20/7 
f 8/21/8 15/22/8 14/23/9 
f 16/24/10 15/25/10 5/26/10 6/27/10 
f 1/28/11 16/29/12 6/30/12 
f 12/31/9 15/22/9 17/32/9 
f 13/33/12 10/34/12 16/29/12 
f 18/35/13 19/36/13 20/37/14 21/38/14 
f 20/39/12 19/40/12 22/41/12 
f 17/42/15 23/43/15 9/13/4 12/16/4 
f 20/37/14 24/44/16 25/45/16 21/38/14 
f 24/44/16 23/43/15 17/42/15 25/45/16 
f 21/46/8 25/47/8 15/22/8 26/48/8 
f 15/22/8 25/47/8 17/32/8 
f 26/49/10 15/25/10 16/24/10 22/50/10 
f 22/41/11 16/29/11 24/51/11 20/39/11 
f 2/52/8 15/22/8 8/21/8 3/53/8 
f 2/52/8 5/54/8 15/22/8 
f 13/33/12 16/29/12 7/55/11 
f 7/55/11 16/29/12 1/28/11 4/56/11 
f 11/57/9 14/23/9 15/22/8 
f 9/58/12 16/29/12 10/34/12 
f 15/22/8 12/31/8 11/57/8 
f 16/29/12 9/58/12 23/59/12 
f 23/59/12 24/51/12 16/29/12 
f 21/46/8 26/48/8 18/60/8 


